<?xml version="1.0" encoding="utf-8"?>
<!-- Generator: Adobe Illustrator 27.0.0, SVG Export Plug-In . SVG Version: 6.00 Build 0)  -->
<svg version="1.1" id="Layer_1" xmlns="http://www.w3.org/2000/svg" xmlns:xlink="http://www.w3.org/1999/xlink" x="0px" y="0px"
	 viewBox="0 0 145.5 49.9" style="enable-background:new 0 0 145.5 49.9;" xml:space="preserve">
<style type="text/css">
	.st0{fill:#6A92FE;}
</style>
<g>
	<g>
		<path class="st0" d="M11.7,31c-1.3,0-2.4-0.4-3.5-1.1c-1-0.7-1.7-1.8-2-3.3l-6-21C0.1,5.3,0.1,5.1,0,4.9c0-0.2,0-0.4,0-0.6
			c0-1.2,0.4-2.2,1.3-3C2.2,0.4,3.2,0,4.5,0c2.2,0,3.5,1,4,3l3.1,14.7c0.2,0.7,0.5,1.1,0.9,1.1c0.5,0,0.8-0.3,1-1l4.3-12.7
			c0.4-1.1,1-2,1.9-2.5c0.9-0.5,1.8-0.8,2.7-0.8c0.9,0,1.9,0.3,2.8,0.8C26,3.1,26.6,4,26.9,5.1l4.2,12.7c0.2,0.7,0.5,1,0.9,1
			s0.7-0.4,0.9-1.1L36,3c0.5-2,1.8-3,4-3c1.3,0,2.3,0.4,3.2,1.2c0.9,0.8,1.3,1.9,1.3,3c0,0.2,0,0.4,0,0.6c0,0.2-0.1,0.4-0.2,0.7
			l-6,21c-0.4,1.5-1.1,2.6-2.1,3.3c-1,0.7-2.2,1.1-3.4,1.1c-1.1,0-2.2-0.4-3.2-1c-1-0.7-1.8-1.8-2.3-3.2l-4-11.8
			c-0.2-0.7-0.5-1.1-0.9-1.1c-0.5,0-0.8,0.4-1,1.1l-4,11.8c-0.5,1.5-1.2,2.5-2.2,3.2C14,30.6,12.9,31,11.7,31z"/>
		<path class="st0" d="M61.5,31c-4.5,0-8.1-1.4-10.9-4.2c-2.8-2.8-4.1-6.6-4.1-11.4c0-4.7,1.4-8.5,4-11.2C53.2,1.4,56.8,0,61.2,0
			c3.1,0,5.9,1.1,8.2,3.3c0.3-0.8,0.8-1.5,1.5-2c0.7-0.5,1.6-0.8,2.6-0.8c1.3,0,2.4,0.4,3.2,1.1C77.6,2.4,78,3.3,78,4.4v22.7
			c0,1.1-0.4,2.1-1.2,2.8c-0.8,0.7-1.9,1.1-3.2,1.1c-2.2,0-3.6-1-4.1-2.9C67.3,30,64.6,31,61.5,31z M62.2,22.9
			c2.1,0,3.8-0.7,5.1-2.1c1.3-1.4,1.9-3.2,1.9-5.4c0-2.2-0.6-4-1.9-5.3c-1.3-1.3-3-2-5.1-2c-2.1,0-3.8,0.7-5.1,2
			c-1.3,1.3-1.9,3.1-1.9,5.3c0,2.1,0.6,3.9,1.9,5.4C58.4,22.2,60.1,22.9,62.2,22.9z"/>
		<path class="st0" d="M81.5,4c0-1.3,0.5-2.3,1.4-3c0.9-0.7,2-1,3.2-1c0.9,0,1.8,0.2,2.5,0.8s1.2,1.2,1.5,2l6.2,15.1
			c0.3,0.9,0.8,1.3,1.4,1.3c0.6,0,1-0.4,1.3-1.3l5.4-15.1c0.3-0.9,0.9-1.6,1.7-2.1c0.8-0.5,1.6-0.7,2.5-0.7c1.1,0,2.2,0.4,3.1,1.1
			c1,0.7,1.5,1.7,1.5,2.9c0,0.7-0.1,1.3-0.4,1.9L97,41.9c-0.5,1-1,1.7-1.8,2.1c-0.7,0.4-1.4,0.7-2.2,0.7c-1.2,0-2.3-0.4-3.2-1.2
			c-1-0.8-1.4-1.8-1.4-3c0-0.6,0.1-1.1,0.4-1.6l5.4-9.6c-1.1-0.3-2-1.2-2.7-2.5l-9.7-21C81.6,5.2,81.5,4.6,81.5,4z"/>
		<path class="st0" d="M129.8,31c-2.9,0-5.5-0.7-7.9-2c-2.4-1.3-4.3-3.2-5.8-5.5c-1.4-2.4-2.2-5.1-2.2-8.1c0-3.1,0.7-5.8,2.2-8
			c1.4-2.3,3.3-4.1,5.8-5.4c2.4-1.3,5-2,7.9-2c2.9,0,5.6,0.6,8,2c2.4,1.3,4.2,3.1,5.7,5.4c1.4,2.3,2.1,5,2.1,8c0,3-0.7,5.7-2.1,8.1
			c-1.4,2.4-3.3,4.2-5.7,5.5C135.4,30.3,132.7,31,129.8,31z M129.8,22.9c2.1,0,3.8-0.7,5-2.1c1.3-1.4,2-3.2,2-5.4c0-2.2-0.6-4-2-5.3
			c-1.3-1.3-3-2-5-2c-2,0-3.7,0.7-5,2c-1.4,1.3-2,3.1-2,5.3c0,2.1,0.7,3.9,2,5.4C126.1,22.2,127.8,22.9,129.8,22.9z"/>
	</g>
	<g>
		<path class="st0" d="M11.9,45.5c-0.7,0-1.3-0.1-1.8-0.3s-1-0.5-1.4-0.8v4.5c0,0.3-0.1,0.6-0.4,0.7c-0.3,0.2-0.5,0.3-0.8,0.3
			c-0.3,0-0.6-0.1-0.8-0.3s-0.4-0.4-0.4-0.7v-12c0-0.4,0.1-0.6,0.4-0.8s0.5-0.3,0.8-0.3c0.3,0,0.6,0.1,0.8,0.2
			c0.2,0.2,0.4,0.4,0.4,0.7c0.4-0.3,0.8-0.6,1.4-0.8s1.1-0.3,1.8-0.3c1.1,0,2,0.2,2.8,0.6c0.8,0.4,1.4,1,1.9,1.7
			c0.5,0.7,0.7,1.6,0.7,2.5c0,1-0.2,1.8-0.7,2.6c-0.5,0.8-1.1,1.4-1.9,1.8C13.9,45.3,12.9,45.5,11.9,45.5z M11.7,43.5
			c0.9,0,1.7-0.3,2.3-0.8c0.6-0.6,0.9-1.3,0.9-2.2c0-0.9-0.3-1.6-0.9-2.1c-0.6-0.5-1.3-0.8-2.3-0.8c-0.9,0-1.6,0.3-2.2,0.8
			C9,39,8.7,39.6,8.7,40.5c0,0.9,0.3,1.6,0.8,2.2C10,43.2,10.7,43.5,11.7,43.5z"/>
		<path class="st0" d="M24.6,45.5c-1.8,0-3.2-0.5-4.2-1.4c-1-0.9-1.5-2.2-1.5-3.8c0-1.4,0.5-2.5,1.5-3.4c1-0.9,2.3-1.3,3.9-1.3
			c1.6,0,2.8,0.4,3.7,1.2c0.9,0.8,1.4,1.8,1.4,3c0,0.5-0.1,0.8-0.4,1.1c-0.3,0.2-0.6,0.4-1.1,0.4h-6.3c-0.2,0-0.3,0.1-0.3,0.4
			c0.2,0.6,0.6,1.1,1.2,1.4c0.6,0.3,1.3,0.5,2,0.5c0.6,0,1.1-0.1,1.6-0.2c0.5-0.1,1-0.3,1.3-0.6c0.1-0.1,0.3-0.1,0.5-0.1
			c0.3,0,0.5,0.1,0.7,0.3c0.2,0.2,0.3,0.4,0.3,0.7c0,0.1,0,0.3-0.1,0.4c0,0.1-0.2,0.3-0.3,0.4c-0.6,0.4-1.3,0.7-2,0.8
			C26,45.5,25.3,45.5,24.6,45.5z M26.7,39.6c0.1,0,0.2-0.1,0.2-0.2c0-0.5-0.2-0.9-0.7-1.3c-0.5-0.4-1.1-0.6-1.8-0.6
			c-0.6,0-1.2,0.2-1.8,0.5c-0.6,0.3-0.9,0.7-1,1.2v0c0,0.1,0,0.2,0,0.2c0,0.1,0.1,0.1,0.3,0.1L26.7,39.6z"/>
		<path class="st0" d="M35.5,45.5c-0.9,0-1.7-0.3-2.3-0.8c-0.6-0.5-0.9-1.3-0.9-2.3v-4.1c0-0.2-0.1-0.3-0.4-0.3h-0.6
			c-0.3,0-0.6-0.1-0.8-0.3c-0.2-0.2-0.3-0.4-0.3-0.7c0-0.3,0.1-0.6,0.3-0.7c0.2-0.2,0.5-0.3,0.8-0.3H32c0.2,0,0.4-0.1,0.4-0.3v-2.7
			c0-0.3,0.1-0.5,0.3-0.7c0.2-0.2,0.5-0.3,0.8-0.3c0.4,0,0.7,0.1,0.9,0.3c0.2,0.2,0.3,0.4,0.3,0.7v2.7c0,0.2,0.1,0.3,0.4,0.3H37
			c0.3,0,0.5,0.1,0.8,0.3c0.2,0.2,0.3,0.4,0.3,0.7c0,0.3-0.1,0.5-0.3,0.7C37.6,37.9,37.3,38,37,38h-1.9c-0.2,0-0.4,0.1-0.4,0.3v3.8
			c0,0.9,0.4,1.4,1.2,1.4c0.2,0,0.5,0,0.8-0.1s0.4-0.1,0.5-0.1c0.3,0,0.6,0.1,0.8,0.3c0.2,0.2,0.3,0.4,0.3,0.7
			c0,0.2-0.1,0.4-0.2,0.6c-0.1,0.2-0.3,0.3-0.6,0.4c-0.3,0.1-0.6,0.2-1,0.2C36.2,45.5,35.8,45.5,35.5,45.5z"/>
		<path class="st0" d="M44.8,45.5c-1.1,0-2-0.2-2.9-0.6c-0.9-0.4-1.5-1-2-1.8c-0.5-0.8-0.7-1.6-0.7-2.6c0-0.9,0.2-1.8,0.7-2.5
			c0.5-0.7,1.1-1.3,2-1.7c0.9-0.4,1.8-0.6,2.9-0.6s2,0.2,2.8,0.6c0.8,0.4,1.5,1,2,1.7c0.5,0.7,0.7,1.6,0.7,2.5c0,1-0.2,1.8-0.7,2.6
			c-0.5,0.8-1.2,1.4-2,1.8C46.8,45.3,45.8,45.5,44.8,45.5z M44.8,43.5c0.9,0,1.7-0.3,2.3-0.8c0.6-0.6,0.9-1.3,0.9-2.2
			c0-0.9-0.3-1.6-0.9-2.1c-0.6-0.5-1.3-0.8-2.3-0.8c-1,0-1.7,0.3-2.3,0.8c-0.6,0.5-0.8,1.2-0.8,2.1c0,0.9,0.3,1.6,0.8,2.2
			C43.1,43.2,43.8,43.5,44.8,43.5z"/>
		<path class="st0" d="M57.9,45.5c-0.7,0-1.3-0.1-1.8-0.3s-1-0.5-1.4-0.8v4.5c0,0.3-0.1,0.6-0.4,0.7c-0.3,0.2-0.5,0.3-0.8,0.3
			c-0.3,0-0.6-0.1-0.8-0.3s-0.4-0.4-0.4-0.7v-12c0-0.4,0.1-0.6,0.4-0.8s0.5-0.3,0.8-0.3c0.3,0,0.6,0.1,0.8,0.2
			c0.2,0.2,0.4,0.4,0.4,0.7c0.4-0.3,0.8-0.6,1.4-0.8s1.1-0.3,1.8-0.3c1.1,0,2,0.2,2.8,0.6c0.8,0.4,1.4,1,1.9,1.7
			c0.5,0.7,0.7,1.6,0.7,2.5c0,1-0.2,1.8-0.7,2.6c-0.5,0.8-1.1,1.4-1.9,1.8C59.9,45.3,59,45.5,57.9,45.5z M57.7,43.5
			c0.9,0,1.7-0.3,2.3-0.8c0.6-0.6,0.9-1.3,0.9-2.2c0-0.9-0.3-1.6-0.9-2.1c-0.6-0.5-1.3-0.8-2.3-0.8c-0.9,0-1.6,0.3-2.2,0.8
			c-0.5,0.5-0.8,1.2-0.8,2.1c0,0.9,0.3,1.6,0.8,2.2C56.1,43.2,56.8,43.5,57.7,43.5z"/>
		<path class="st0" d="M66.6,33.9c-0.5,0-0.8-0.1-1.2-0.4c-0.3-0.3-0.5-0.6-0.5-1c0-0.4,0.2-0.7,0.5-1c0.3-0.3,0.7-0.4,1.2-0.4
			c0.4,0,0.8,0.1,1.1,0.4c0.3,0.3,0.5,0.6,0.5,1c0,0.4-0.2,0.7-0.5,1C67.4,33.7,67,33.9,66.6,33.9z M66.6,45.5
			c-0.3,0-0.6-0.1-0.8-0.3c-0.3-0.2-0.4-0.4-0.4-0.7v-7.8c0-0.4,0.1-0.6,0.4-0.8s0.5-0.3,0.8-0.3c0.3,0,0.6,0.1,0.8,0.3
			s0.4,0.5,0.4,0.8v7.8c0,0.3-0.1,0.6-0.4,0.7C67.1,45.4,66.9,45.5,66.6,45.5z"/>
		<path class="st0" d="M75.2,45.5c-1,0-2-0.2-2.8-0.6c-0.8-0.4-1.5-1-1.9-1.8s-0.7-1.6-0.7-2.6c0-0.9,0.2-1.8,0.7-2.5
			s1.1-1.3,1.9-1.7c0.8-0.4,1.7-0.6,2.8-0.6c0.7,0,1.3,0.1,1.8,0.3s1,0.5,1.4,0.8c0-0.3,0.2-0.5,0.4-0.7c0.2-0.2,0.5-0.2,0.8-0.2
			c0.3,0,0.6,0.1,0.8,0.3c0.3,0.2,0.4,0.5,0.4,0.8v7.6c0,0.3-0.1,0.6-0.4,0.7c-0.3,0.2-0.5,0.3-0.8,0.3c-0.3,0-0.6-0.1-0.8-0.3
			c-0.3-0.2-0.4-0.4-0.4-0.7v-0.1c-0.4,0.3-0.8,0.6-1.4,0.8S75.8,45.5,75.2,45.5z M75.4,43.5c0.9,0,1.6-0.3,2.2-0.8
			c0.5-0.6,0.8-1.3,0.8-2.2c0-0.9-0.3-1.6-0.8-2.1c-0.5-0.5-1.2-0.8-2.2-0.8c-0.9,0-1.7,0.3-2.3,0.8c-0.6,0.5-0.9,1.2-0.9,2.1
			c0,0.9,0.3,1.6,0.9,2.2C73.7,43.2,74.4,43.5,75.4,43.5z"/>
	</g>
</g>
</svg>
